<svg xmlns="http://www.w3.org/2000/svg" viewBox="0 0 139 102.8"><defs><style>.cls-1{fill:#5c5b59;}</style></defs><title>air-conditioning</title><g id="Capa_2" data-name="Capa 2"><g id="Capa_1-2" data-name="Capa 1"><path class="cls-1" d="M126.74,0H12.26A12.27,12.27,0,0,0,0,12.26V40.37A12.28,12.28,0,0,0,12.26,52.64H126.74A12.28,12.28,0,0,0,139,40.37V12.26A12.27,12.27,0,0,0,126.74,0Zm8.11,41.39H54a2,2,0,0,0,0,4.09h79.08a8.16,8.16,0,0,1-6.37,3.07H12.26a8.16,8.16,0,0,1-6.37-3.07h40a2,2,0,1,0,0-4.09H4.16a18.7,18.7,0,0,1-.07-2.55H84.57a2,2,0,0,0,0-4.09H4.09V12.26a8.19,8.19,0,0,1,8.17-8.17H126.74a8.19,8.19,0,0,1,8.17,8.17V34.75H92.75a2,2,0,1,0,0,4.09h42.16A21,21,0,0,1,134.85,41.39Z"/><circle class="cls-1" cx="118.08" cy="27.85" r="2.81"/><circle class="cls-1" cx="128.91" cy="27.85" r="2.81"/><path class="cls-1" d="M129.2,83,122,78.58l7.16-4.45A2,2,0,1,0,127,70.65l-6.83,4.25V66.85a2,2,0,0,0-4.09,0V74.9l-6.84-4.25a2,2,0,0,0-2.16,3.48l7.17,4.45L107.12,83a2,2,0,0,0,1.09,3.78c1,0,.94-.35,7.91-4.55v8a2,2,0,1,0,4.09,0v-8c7,4.21,6.88,4.55,7.91,4.55A2,2,0,0,0,129.2,83Z"/><path class="cls-1" d="M52.6,76.92l-7.16-4.45L52.6,68a2,2,0,0,0-2.15-3.48l-6.84,4.25V60.74a2,2,0,0,0-4.09,0v8.05l-6.83-4.25A2,2,0,0,0,30.53,68l7.16,4.45-7.16,4.45a2,2,0,1,0,2.16,3.47l6.83-4.24v8a2,2,0,1,0,4.09,0v-8c7,4.21,6.89,4.55,7.91,4.55A2,2,0,0,0,52.6,76.92Z"/><path class="cls-1" d="M77.61,95.67l-3.24-2,3.24-2a2,2,0,1,0-2.16-3.47L72.54,90V86.55a2,2,0,1,0-4.09,0V90l-2.91-1.81a2,2,0,1,0-2.16,3.47l3.24,2-3.24,2a2,2,0,1,0,2.16,3.47l2.91-1.81v3.43a2,2,0,0,0,4.09,0V97.33l2.91,1.81a2,2,0,1,0,2.16-3.47Z"/><path class="cls-1" d="M13.61,68.57a6.3,6.3,0,1,0,6.29,6.29A6.29,6.29,0,0,0,13.61,68.57Zm0,8.5a2.21,2.21,0,1,1,2.21-2.21A2.2,2.2,0,0,1,13.61,77.07Z"/><path class="cls-1" d="M87.16,59.23a6.3,6.3,0,1,0,6.29,6.29A6.3,6.3,0,0,0,87.16,59.23Zm0,8.5a2.21,2.21,0,1,1,2.2-2.21A2.21,2.21,0,0,1,87.16,67.73Z"/><path class="cls-1" d="M75.79,11.48H63.57a2,2,0,1,0,0,4.09H75.79a2,2,0,0,0,0-4.09Z"/></g></g></svg>