<svg id="Capa_1" data-name="Capa 1" xmlns="http://www.w3.org/2000/svg" viewBox="0 0 145.57 166.84"><defs><style>.cls-1{fill:#876b5d;}</style></defs><title>adult</title><path class="cls-1" d="M40.42,134.08H33.16v-6.4a5.27,5.27,0,0,0-5.26-5.26H16.21a5.27,5.27,0,0,0-5.27,5.26v6.4H3.68A3.69,3.69,0,0,0,0,137.77v25.38a3.69,3.69,0,0,0,3.68,3.69H40.42a3.69,3.69,0,0,0,3.69-3.69V137.77A3.69,3.69,0,0,0,40.42,134.08Zm-13,0H16.67v-5.94H27.44Z"/><circle class="cls-1" cx="74.04" cy="13.73" r="13.73"/><path class="cls-1" d="M141.59,106.28h-3V88.68h2.43a1.31,1.31,0,0,0,1.31-1.31V83a1.31,1.31,0,0,0-1.31-1.31H123.85a6.63,6.63,0,0,0-2.7-7.73l-13.6-8.67-.11-17.85a15.71,15.71,0,0,0-15.68-15.6H56.19a15.72,15.72,0,0,0-15.68,15.6l-.24,48.68a6.62,6.62,0,0,0,6.59,6.66h0a6.63,6.63,0,0,0,6.62-6.6l.25-48.67a1.28,1.28,0,1,1,2.55,0V158.89a7.95,7.95,0,1,0,15.9,0V95.34h3.43v63.55a7.95,7.95,0,1,0,15.9,0c0-103.76-.14-46.9-.14-111.33a1.39,1.39,0,0,1,2.77-.05h0L94.32,69a6.62,6.62,0,0,0,3.07,5.55l15,9.54v3.3a1.3,1.3,0,0,0,1.31,1.31h2.42v17.6h-2.95a4,4,0,0,0-4,4v45.6a4,4,0,0,0,4,4h2.95v4.3a2.72,2.72,0,0,0,5.43,0v-4.3h11.69v4.3a2.71,2.71,0,1,0,5.42,0v-4.3h3a4,4,0,0,0,4-4v-45.6A4,4,0,0,0,141.59,106.28Zm-8.37,0H121.53V88.68h11.69v17.6Z"/></svg>