<svg width="73" height="73" viewBox="0 0 73 73" fill="none" xmlns="http://www.w3.org/2000/svg">
<path d="M9.42774 37.7867V8.08191C9.42774 5.98401 11.1344 4.27735 13.2323 4.27735C14.8597 4.27735 16.3066 5.31204 16.8326 6.85217L17.6971 9.38337C15.2136 11.314 14.0246 14.631 14.9581 17.8347L15.0322 18.0889C15.3626 19.223 16.5498 19.8744 17.6837 19.5439L28.7518 16.319C29.8859 15.9886 30.5373 14.8013 30.2068 13.6674L30.1328 13.4132C29.041 9.66596 25.4173 7.34706 21.6667 7.77124L20.8805 5.46959C19.7628 2.19813 16.6894 0 13.2323 0C8.77587 0 5.15039 3.62548 5.15039 8.08191V37.7868H9.42774V37.7867Z" fill="#5C5B59"/>
<path d="M70.8613 42.0626H30.2233C30.2233 42.0719 30.224 42.081 30.224 42.0904V57.1168C30.224 60.6545 27.3458 63.5328 23.808 63.5328H15.8421C12.3044 63.5328 9.42613 60.6545 9.42613 57.1168V42.0903C9.42613 42.081 9.42684 42.0719 9.42684 42.0625H2.13867C0.957555 42.0625 0 43.0201 0 44.2012V48.0536C0 48.762 0.35502 49.4178 0.937166 49.8215C1.36975 50.1214 1.65334 50.6228 1.65334 51.1879V58.2323C1.65334 62.8604 4.80046 66.7519 9.07082 67.8877L7.887 69.6822C7.23655 70.6681 7.50859 71.9946 8.49452 72.6451C8.8571 72.8843 9.26601 72.9987 9.67022 72.9987C10.3649 72.9987 11.0462 72.6608 11.4574 72.0374L13.7849 68.5093C13.8456 68.4172 13.8958 68.3214 13.9406 68.2242H59.0594C59.1042 68.3214 59.1544 68.4172 59.2151 68.5093L61.5426 72.0374C61.9538 72.6608 62.635 72.9987 63.3298 72.9987C63.734 72.9987 64.1429 72.8842 64.5055 72.6451C65.4914 71.9946 65.7635 70.6681 65.113 69.6822L63.9292 67.8877C68.1995 66.7519 71.3467 62.8604 71.3467 58.2323V51.1879C71.3467 50.6228 71.6303 50.1214 72.0628 49.8215C72.6448 49.4178 73 48.762 73 48.0536V44.2012C73 43.0201 72.0425 42.0626 70.8613 42.0626V42.0626Z" fill="#5C5B59"/>
<path d="M23.8086 59.257H15.8428C14.6617 59.257 13.7041 58.2994 13.7041 57.1183V42.0918C13.7041 40.9107 14.6617 39.9531 15.8428 39.9531H23.8086C24.9898 39.9531 25.9473 40.9107 25.9473 42.0918V57.1183C25.9473 58.2995 24.9898 59.257 23.8086 59.257Z" fill="#5C5B59"/>
</svg>
