<svg xmlns="http://www.w3.org/2000/svg" viewBox="0 0 178.75 127.68"><defs><style>.cls-1{fill:#5c5b59;}</style></defs><title>kingbed</title><g id="Capa_2" data-name="Capa 2"><g id="Capa_1-2" data-name="Capa 1"><path class="cls-1" d="M4.26,114.91h6.38v8.51a4.28,4.28,0,0,0,4.26,4.26h17a4.28,4.28,0,0,0,4.26-4.26v-8.51H142.57v8.51a4.28,4.28,0,0,0,4.26,4.26h17a4.28,4.28,0,0,0,4.26-4.26v-8.51h6.38a4.27,4.27,0,0,0,4.26-4.26V68.1A12.81,12.81,0,0,0,166,55.33V25.54A25.56,25.56,0,0,0,140.45,0H38.3A25.56,25.56,0,0,0,12.77,25.54V55.33A12.81,12.81,0,0,0,0,68.1v42.55A4.27,4.27,0,0,0,4.26,114.91Zm23.4,4.26H19.15v-4.26h8.51Zm131.94,0h-8.51v-4.26h8.51ZM21.28,25.54a17,17,0,0,1,17-17H140.45a17,17,0,0,1,17,17V55.33H149v-17a8.54,8.54,0,0,0-8.51-8.51h-34a8.54,8.54,0,0,0-8.51,8.51v17h-17v-17a8.54,8.54,0,0,0-8.51-8.51h-34a8.54,8.54,0,0,0-8.51,8.51v17H21.28ZM140.45,38.3v17h-34v-17Zm-68.1,0v17h-34v-17ZM8.51,68.1a4.27,4.27,0,0,1,4.26-4.26H166a4.27,4.27,0,0,1,4.26,4.26V89.38H8.51Zm0,29.79H170.24v8.51H8.51Z"/></g></g></svg>