<svg id="Capa_1" data-name="Capa 1" xmlns="http://www.w3.org/2000/svg" viewBox="0 0 138.93 138.93"><defs><style>.cls-1{fill:#876b5d;}</style></defs><title>check</title><circle class="cls-1" cx="104.74" cy="56.98" r="5.43"/><path class="cls-1" d="M117.22,10.85h-7V5.43a5.43,5.43,0,0,0-10.86,0v5.42H74.62V5.43a5.43,5.43,0,1,0-10.85,0v5.42H39.35V5.43a5.43,5.43,0,1,0-10.86,0v5.42H21.71A21.74,21.74,0,0,0,0,32.56v84.66a21.74,21.74,0,0,0,21.71,21.71H63.22a5.43,5.43,0,1,0,0-10.85H21.71a10.87,10.87,0,0,1-10.86-10.86V32.56A10.87,10.87,0,0,1,21.71,21.71h6.78v5.42a5.43,5.43,0,0,0,10.86,0V21.71H63.77v5.42a5.43,5.43,0,1,0,10.85,0V21.71H99.31v5.42a5.43,5.43,0,0,0,10.86,0V21.71h7a10.87,10.87,0,0,1,10.86,10.85V63.5a5.43,5.43,0,0,0,10.85,0V32.56A21.74,21.74,0,0,0,117.22,10.85Z"/><path class="cls-1" d="M106.1,73.26a32.84,32.84,0,1,0,32.83,32.84A32.87,32.87,0,0,0,106.1,73.26Zm0,54.82a22,22,0,1,1,22-22A22,22,0,0,1,106.1,128.08Z"/><path class="cls-1" d="M114,100.67h-2.45V95a5.43,5.43,0,1,0-10.85,0V106.1a5.43,5.43,0,0,0,5.43,5.42H114a5.43,5.43,0,0,0,0-10.85Z"/><circle class="cls-1" cx="81.13" cy="56.98" r="5.43"/><circle class="cls-1" cx="57.53" cy="80.59" r="5.43"/><circle class="cls-1" cx="33.92" cy="56.98" r="5.43"/><circle class="cls-1" cx="33.92" cy="80.59" r="5.43"/><circle class="cls-1" cx="33.92" cy="104.2" r="5.43"/><circle class="cls-1" cx="57.53" cy="104.2" r="5.43"/><circle class="cls-1" cx="57.53" cy="56.98" r="5.43"/></svg>