<svg id="Capa_1" data-name="Capa 1" xmlns="http://www.w3.org/2000/svg" viewBox="0 0 89.65 148.7"><defs><style>.cls-1{fill:#876b5d;}</style></defs><title>child</title><path class="cls-1" d="M87.21,75.19,69.12,64.75A7.76,7.76,0,0,1,66.18,61L60.57,41.94a4.38,4.38,0,0,0-.6-1.27,4.79,4.79,0,0,0-4.21-2.52l-23.92,1A4.76,4.76,0,0,0,29,40.28a5.4,5.4,0,0,0-.47.3L12.29,53.12a7,7,0,0,0-2.39,6.7l6.44,27.7a5.36,5.36,0,0,0,5.14,4l.48,0,2.41-.24a4.42,4.42,0,0,0,3.92-5.38L23.71,64.55A4,4,0,0,1,25,61.07l2.89-2.23,1.49,34.33a.36.36,0,0,0,0,.1l-6.61,14.66a16.66,16.66,0,0,1-4.56,5.58L2.72,124.67a6.83,6.83,0,0,0-2.14,8.18l2.12,4.58a4.9,4.9,0,0,0,4.42,3,5.14,5.14,0,0,0,3.07-1.06L30.64,124.1a23.07,23.07,0,0,0,5.72-6.72L46.57,97.71a3.37,3.37,0,0,0,.2-.49l.72,0L64.2,143.26A8.34,8.34,0,0,0,72,148.7a8.08,8.08,0,0,0,2.44-.38l1-.32a7.72,7.72,0,0,0,4.94-10L62.85,89.45c-.08-.22-.2-.43-.29-.64l-.57-13,19.4,10.08a4.8,4.8,0,0,0,2.23.54,4.88,4.88,0,0,0,4.29-2.53l1.15-2.13A4.9,4.9,0,0,0,87.21,75.19Z"/><path class="cls-1" d="M41.16,34.69h.76A17.35,17.35,0,0,0,40.42,0a17.34,17.34,0,0,0,.74,34.67Z"/></svg>