<svg xmlns="http://www.w3.org/2000/svg" viewBox="0 0 134.88 134.88"><defs><style>.cls-1{fill:#5c5b59;}</style></defs><title>dryer</title><g id="Capa_2" data-name="Capa 2"><g id="Capa_1-2" data-name="Capa 1"><g id="Page-1"><g id="_029---Dryer" data-name="029---Dryer"><path id="Shape" class="cls-1" d="M123.64,0H11.24A11.26,11.26,0,0,0,0,11.24v112.4a11.26,11.26,0,0,0,11.24,11.24h112.4a11.26,11.26,0,0,0,11.24-11.24V11.24A11.26,11.26,0,0,0,123.64,0Zm6.74,11.24V31.47H58.45V4.5h65.19A6.74,6.74,0,0,1,130.38,11.24ZM11.24,4.5H54v27H4.5V11.24A6.74,6.74,0,0,1,11.24,4.5Zm112.4,125.88H11.24a6.74,6.74,0,0,1-6.74-6.74V36H130.38v87.67A6.74,6.74,0,0,1,123.64,130.38Z"/><path id="Shape-2" data-name="Shape" class="cls-1" d="M116.89,27a9,9,0,1,0-9-9A9,9,0,0,0,116.89,27Zm0-13.49A4.5,4.5,0,1,1,112.4,18,4.5,4.5,0,0,1,116.89,13.49Z"/><path id="Shape-3" data-name="Shape" class="cls-1" d="M94.41,27a9,9,0,1,0-9-9A9,9,0,0,0,94.41,27Zm0-13.49A4.5,4.5,0,1,1,89.92,18,4.49,4.49,0,0,1,94.41,13.49Z"/><path id="Shape-4" data-name="Shape" class="cls-1" d="M18,27a9,9,0,1,0-9-9A9,9,0,0,0,18,27Zm0-13.49A4.5,4.5,0,1,1,13.49,18,4.49,4.49,0,0,1,18,13.49Z"/><circle id="Oval" class="cls-1" cx="67.44" cy="17.98" r="2.25"/><circle id="Oval-2" data-name="Oval" class="cls-1" cx="76.43" cy="17.98" r="2.25"/><circle id="Oval-3" data-name="Oval" class="cls-1" cx="35.97" cy="17.98" r="2.25"/><circle id="Oval-4" data-name="Oval" class="cls-1" cx="44.96" cy="17.98" r="2.25"/><path id="Shape-5" data-name="Shape" class="cls-1" d="M67.44,40.46a42.71,42.71,0,1,0,42.71,42.71A42.71,42.71,0,0,0,67.44,40.46Zm0,80.93a38.22,38.22,0,1,1,38.21-38.22A38.22,38.22,0,0,1,67.44,121.39Z"/><path id="Shape-6" data-name="Shape" class="cls-1" d="M67.44,49.45a33.72,33.72,0,1,0,33.72,33.72A33.72,33.72,0,0,0,67.44,49.45Zm0,63A29.23,29.23,0,1,1,96.66,83.17,29.23,29.23,0,0,1,67.44,112.4Z"/><path id="Shape-7" data-name="Shape" class="cls-1" d="M11.24,40.46A2.25,2.25,0,0,0,9,42.71v4.5a2.25,2.25,0,0,0,4.5,0v-4.5A2.25,2.25,0,0,0,11.24,40.46Z"/><path id="Shape-8" data-name="Shape" class="cls-1" d="M11.24,54A2.25,2.25,0,0,0,9,56.2v47.2a2.25,2.25,0,0,0,4.5,0V56.2A2.25,2.25,0,0,0,11.24,54Z"/><path id="Shape-9" data-name="Shape" class="cls-1" d="M68.47,81.18a7.63,7.63,0,0,1-3.28-7,7.64,7.64,0,0,1,3.25-7,2.25,2.25,0,1,0-2-4,12,12,0,0,0-5.74,11,12,12,0,0,0,5.71,11,7.64,7.64,0,0,1,3.29,7,7.67,7.67,0,0,1-3.28,7,2.25,2.25,0,0,0,2,4,12,12,0,0,0,5.75-11,11.94,11.94,0,0,0-5.71-11Z"/><path id="Shape-10" data-name="Shape" class="cls-1" d="M82,81.18a7.63,7.63,0,0,1-3.28-7,7.64,7.64,0,0,1,3.25-7,2.25,2.25,0,1,0-2-4,12,12,0,0,0-5.74,11,12,12,0,0,0,5.71,11,7.61,7.61,0,0,1,3.28,7,7.64,7.64,0,0,1-3.27,7,2.25,2.25,0,1,0,2,4,12,12,0,0,0,5.74-11,11.94,11.94,0,0,0-5.71-11Z"/><path id="Shape-11" data-name="Shape" class="cls-1" d="M55,81.18a7.65,7.65,0,0,1-3.28-7,7.66,7.66,0,0,1,3.25-7,2.25,2.25,0,0,0-2-4,11.93,11.93,0,0,0-5.74,11,12,12,0,0,0,5.71,11,7.63,7.63,0,0,1,3.28,7,7.65,7.65,0,0,1-3.28,7,2.25,2.25,0,0,0,2,4,12,12,0,0,0,5.75-11,11.94,11.94,0,0,0-5.71-11Z"/></g></g></g></g></svg>