<svg xmlns="http://www.w3.org/2000/svg" viewBox="0 0 164.25 164.25"><defs><style>.cls-1{fill:#5c5b59;}</style></defs><title>kitchen</title><g id="Capa_2" data-name="Capa 2"><g id="Capa_1-2" data-name="Capa 1"><path class="cls-1" d="M19.16,79.39a2.74,2.74,0,1,1-2.74-2.74A2.74,2.74,0,0,1,19.16,79.39Z"/><path class="cls-1" d="M30.11,79.39a2.74,2.74,0,1,1-2.74-2.74A2.74,2.74,0,0,1,30.11,79.39Z"/><path class="cls-1" d="M52,79.39a2.74,2.74,0,1,1-2.73-2.74A2.74,2.74,0,0,1,52,79.39Z"/><path class="cls-1" d="M63,79.39a2.74,2.74,0,1,1-2.73-2.74A2.74,2.74,0,0,1,63,79.39Z"/><path class="cls-1" d="M57.49,95.81H19.16A8.22,8.22,0,0,0,11,104V131.4a8.22,8.22,0,0,0,8.21,8.21H57.49a8.22,8.22,0,0,0,8.21-8.21V104A8.22,8.22,0,0,0,57.49,95.81Zm2.74,35.59a2.75,2.75,0,0,1-2.74,2.74H19.16a2.75,2.75,0,0,1-2.74-2.74V104a2.74,2.74,0,0,1,2.74-2.73H57.49A2.74,2.74,0,0,1,60.23,104Z"/><path class="cls-1" d="M5.47,32.85H71.18A2.74,2.74,0,0,0,73,28L54.75,12.43V2.74A2.74,2.74,0,0,0,52,0H24.64A2.74,2.74,0,0,0,21.9,2.74v9.69L3.69,28a2.74,2.74,0,0,0,1.78,4.82ZM27.37,5.47H49.28V11H27.37Zm-1.72,11H51l12.78,11H12.87Z"/><path class="cls-1" d="M161.51,0h-43.8A2.74,2.74,0,0,0,115,2.74v65.7H73.91a2.75,2.75,0,0,0-2,.82,8.11,8.11,0,0,0-3.52-.82H8.21A8.22,8.22,0,0,0,0,76.65V156a8.23,8.23,0,0,0,8.21,8.21H68.44a8.13,8.13,0,0,0,3.52-.83,2.72,2.72,0,0,0,2,.83h87.6a2.74,2.74,0,0,0,2.74-2.74V2.74A2.74,2.74,0,0,0,161.51,0ZM76.65,73.91H115V90.34H98.55V87.6a2.74,2.74,0,0,0-5.48,0v2.74H76.65ZM5.47,76.65a2.75,2.75,0,0,1,2.74-2.74H68.44a2.75,2.75,0,0,1,2.74,2.74v8.21H5.47Zm63,82.13H63V147.83a2.74,2.74,0,1,0-5.47,0v10.95H52V147.83a2.74,2.74,0,1,0-5.47,0v10.95H41.06V147.83a2.74,2.74,0,1,0-5.47,0v10.95H30.11V147.83a2.74,2.74,0,1,0-5.47,0v10.95H19.16V147.83a2.74,2.74,0,1,0-5.47,0v10.95H8.21A2.76,2.76,0,0,1,5.47,156V90.34H71.18V156A2.76,2.76,0,0,1,68.44,158.78ZM76.65,156V95.81H115v63H76.65Zm82.13,2.74H120.45V5.47h38.33Z"/><path class="cls-1" d="M106.76,117.71a2.74,2.74,0,0,0-2.74,2.74v5.48a2.74,2.74,0,0,0,5.48,0v-5.48A2.74,2.74,0,0,0,106.76,117.71Z"/><path class="cls-1" d="M150.56,68.44a2.73,2.73,0,0,0-2.73,2.74v5.47a2.74,2.74,0,1,0,5.47,0V71.18A2.74,2.74,0,0,0,150.56,68.44Z"/><path class="cls-1" d="M128.66,16.42h21.9a2.74,2.74,0,1,0,0-5.47h-21.9a2.74,2.74,0,0,0,0,5.47Z"/><path class="cls-1" d="M128.66,153.3h21.9a2.74,2.74,0,1,0,0-5.47h-21.9a2.74,2.74,0,0,0,0,5.47Z"/><path class="cls-1" d="M106.76,147.83H84.86a2.74,2.74,0,0,0,0,5.47h21.9a2.74,2.74,0,1,0,0-5.47Z"/><path class="cls-1" d="M106.76,101.29H84.86a2.74,2.74,0,0,0,0,5.47h21.9a2.74,2.74,0,1,0,0-5.47Z"/><path class="cls-1" d="M24.64,106.76a2.74,2.74,0,0,0-2.74,2.74v2.74a2.74,2.74,0,0,0,5.47,0V109.5A2.74,2.74,0,0,0,24.64,106.76Z"/><path class="cls-1" d="M24.64,120.45a2.74,2.74,0,0,0-2.74,2.74v2.74a2.74,2.74,0,0,0,5.47,0v-2.74A2.74,2.74,0,0,0,24.64,120.45Z"/></g></g></svg>