<svg xmlns="http://www.w3.org/2000/svg" viewBox="0 0 132.25 104.48"><defs><style>.cls-1{fill:#5c5b59;fill-rule:evenodd;}</style></defs><title>lake-view</title><g id="Capa_2" data-name="Capa 2"><g id="Capa_1-2" data-name="Capa 1"><path class="cls-1" d="M78.16,48.44c-4.47.49-7.86.84-11.92,3.07-4.07-2.23-7.43-2.58-11.92-3.07l-.67,6.14c6,.67,7.53.9,12.6,4.26,5-3.32,6.63-3.6,12.59-4.26Zm27.61,9.27h7.62V96.89H103.05Zm-1.09-7.59a100.56,100.56,0,0,1-5.8-18.68,152.4,152.4,0,0,1-3-21.7h17.47V50.12ZM11.27,9.74v94.74H121V9.74h3.24v2.14H129V9.74h3.22V2.15H129V0h-4.81V2.15H8V0H3.22V2.15H0V9.74H3.22v2.14H8V9.74Zm7.59,48h7.63L29.2,96.89H18.86ZM33.37,31.44a100.46,100.46,0,0,1-5.81,18.68h-8.7V9.74H36.33A151,151,0,0,1,33.37,31.44ZM55.93,91a22.79,22.79,0,0,0,10.3,2.54A22.4,22.4,0,0,0,76.35,91a22.69,22.69,0,0,0,10.24,2.55,21.86,21.86,0,0,0,9.24-2.1l-.38,5.48H36.79l-.38-5.51A21.65,21.65,0,0,0,55.93,91ZM44.84,81.65A23.21,23.21,0,0,0,55.44,79a23.55,23.55,0,0,0,10.8,2.68A23.24,23.24,0,0,0,76.84,79a23.55,23.55,0,0,0,10.8,2.68,22.77,22.77,0,0,0,9-1.93l-.24,3.43c-3.21,1.92-5.9,3.39-9.81,3.39-4.09,0-6.91-1.6-10.28-3.58-3.29,2-6,3.58-10.08,3.6s-7-1.62-10.33-3.6c-3.29,2-6,3.58-10.08,3.6s-6.73-1.48-10-3.39L35.6,79.7A23.08,23.08,0,0,0,44.84,81.65Zm-11-27A107.18,107.18,0,0,0,40.79,33,159.56,159.56,0,0,0,43.92,9.74H88.33A159.9,159.9,0,0,0,91.46,33a107.47,107.47,0,0,0,6.92,21.59l-1.18,17c-3.06,1.84-5.9,3.14-9.57,3.15C83.34,74.72,80.34,73,76.8,71c-3.45,2.06-6.35,3.72-10.57,3.74S58.94,73,55.4,71C52,73,49.06,74.69,44.84,74.71c-3.73,0-6.66-1.3-9.8-3.14ZM67.32,34.58c-4.49.5-7.86.85-11.92,3.08-4.08-2.23-7.43-2.58-11.92-3.08l-.68,6.15c6,.66,7.62,1,12.6,4.25,5-3.31,6.65-3.59,12.6-4.25Z"/></g></g></svg>