<svg xmlns="http://www.w3.org/2000/svg" width="710.22" height="187.56" viewBox="0 0 710.22 187.56"><defs><style>.cls-1{fill:#3a3e4d;}.cls-2{opacity:0.99;}.cls-3{fill:#8c8c8a;}</style></defs><title>Logo-Dark-Gray</title><g id="Layer_2" data-name="Layer 2"><g id="Layer_1-2" data-name="Layer 1"><path class="cls-1" d="M250.06,75.75c-7.22-5.63-19-9-36.47-10.21-18.85-1.41-25.54-3-30.12-7.05A9.48,9.48,0,0,1,180.83,52c0-8.63,10.74-14.27,26.95-14.27,14.8,0,26.95,4.58,34.18,12.86,3.17,3.7,5.28,7.75,7.75,14.8h4.23V36.64h-4.41l-6.34,5.82c-13.92-6.87-23.25-9.34-35.76-9.34-23.43,0-38.76,10.39-38.76,26.25A22.29,22.29,0,0,0,176.77,77c6.17,5.28,16.74,8.28,33.3,9.51,20.79,1.41,27.66,3.17,33.3,8.11a11.93,11.93,0,0,1,3.35,8.45c0,9.16-10.58,14.8-28.37,14.8-15.68,0-27-5.29-34.22-14.45-2.82-3.52-4.93-7.57-8.1-15.5h-3.88v16.5c-.17,5-1.06,8.52-5,8.52-5.46,0-6.12-4.41-6.12-13.92V67.3c0-23.61-13.74-34.18-44.57-34.18-11.63,0-21.91,1.84-29.84,5a28.14,28.14,0,0,0-14.91-4c-13.21,0-26.6,9.33-30.83,21.49V35.41H39.64c-13.74.7-22.55,1.23-26.43,1.23H0v5.64H19.91v71H0v5.64H64.3v-5.64H40.87V77.16a41.52,41.52,0,0,1,3.88-18.49c5.63-12.86,15-19.56,27-19.56a17.51,17.51,0,0,1,8.92,2c-6.85,4.07-10.86,9.46-10.86,15.65,0,6.69,5.64,12,12.86,12h.23c8.3.35,14.25-4.94,14.25-12.38,0-5-2.47-11.46-6.39-14.87A61.27,61.27,0,0,1,111,38.23c8.1,0,15.85,1.76,21,4.58,5.81,3.17,7.93,7.22,7.93,14.62,0,8.63-5.29,13-18.15,15.15L96.89,76.81C86.67,78.4,78.22,81.57,72.58,86c-3.52,2.64-6,8.28-6,13.74,0,14.1,12.68,22.73,32.94,22.73,18,0,25.73-3.35,41.05-17.62,1.59,4.06,2.47,6.17,2.64,6.52,2.65,4.76,9.52,7.75,18,7.75,9.21,0,16-2.6,19.69-5.46,5.76,4,18.26,8.64,37.64,8.64,24.66,0,41-11.28,41-28.37C259.57,86.68,256.58,80.86,250.06,75.75ZM140.23,92.31c-3.35,14.8-16.38,25-32.24,25-11.45,0-19-6.34-19-16a18.77,18.77,0,0,1,6.17-13.74c3.88-3.88,10-6.52,21-9,13.91-3.17,18.49-4.93,24.13-9.33ZM505.31,89.5C500,106.76,486.11,117,468.14,117c-15,0-28.72-7.75-33.83-19-2.82-6-3.87-12.51-3.87-22.55h79.63V72.76a38.87,38.87,0,0,0-10.22-25.55c-8.46-9.51-22.38-14.79-38.58-14.79-18.79,0-34.06,6.79-43.2,18.09C416.54,41,407,34.18,394.52,34.18c-13.21,0-26.6,9.33-30.83,21.49V33.92h-1.23c0,.71-26.5,2.15-44.45,2.72H292.17V7.4h-4.23c-5.11,24.49-10.75,29.77-31.71,29.24v5.64H271V95.49c0,8.63,1.06,13.39,3.88,17.08,4.4,5.82,13,9.16,23.25,9.16,18,0,26.07-8.45,26.07-27.48H320c0,13.74-5.29,21.67-14.45,21.67-8.46,0-13.39-5.64-13.39-15.5V42.28h50.56v71H322.82v5.64h64.3v-5.64H363.69V77.16a41.52,41.52,0,0,1,3.88-18.49c5.64-12.86,15-19.56,26.95-19.56,5.29,0,9,1.23,11.81,4.23-7.4-.18-12,4.23-12,11.27,0,6.87,4.93,11.63,12.15,11.63a12.75,12.75,0,0,0,3.83-.57,46,46,0,0,0-1.56,12c0,26.78,21.14,44.58,53.2,44.58,25.19,0,42.64-12,47.39-32.77Zm-74.87-21A34.3,34.3,0,0,1,439.07,46c5.64-6.34,12.33-9.16,21.31-9.16,18,0,27.14,11.28,27.66,34.18h-57.6ZM591.83,0c-5.11,0-9.16.35-20.08,1.23-5.29.35-12,.71-14.1.71a30.92,30.92,0,0,1-7.57-.53V7.05h19.2V113.28H543.21V0c-5.11,0-9.16.35-20.09,1.23-5.28.35-12,.71-14.09.71a31,31,0,0,1-7.58-.53V7.05h19.21V113.28h-18.5v5.64H612.8v-5.64h-21Zm63.95,31.71c-14.09,0-29.42,4.93-38.94,12.33C606.45,52.32,601,63.42,601,76.46c0,12.51,3.88,22.37,11.63,30.3,9.69,9.51,25.54,15.51,41.4,15.51,32.41,0,56.2-19.56,56.2-46C710.22,50.56,687.31,31.71,655.78,31.71Zm-.18,86.15c-9.51,0-16.91-3-22.19-9.16-6.7-7.58-10.57-20.09-10.57-34.18,0-23.61,12.68-38.23,32.94-38.23,9.69,0,17.27,2.82,22.55,8.63,6.52,7.23,10.22,18.68,10.22,32.42C688.55,102.53,676.22,117.86,655.6,117.86Z"/><g class="cls-2"><path class="cls-3" d="M129.39,160.73a16.34,16.34,0,0,1,4,.43,7.57,7.57,0,0,1,2.68,1.23,4.68,4.68,0,0,1,1.52,1.92,6.63,6.63,0,0,1,.47,2.53,4.8,4.8,0,0,1-.22,1.47,4.15,4.15,0,0,1-.68,1.32,5.41,5.41,0,0,1-1.2,1.12,7.94,7.94,0,0,1-1.75.89,6.19,6.19,0,0,1,3.31,1.75,4.55,4.55,0,0,1,1.06,3.13,6.46,6.46,0,0,1-.55,2.68,6.27,6.27,0,0,1-1.64,2.17,7.87,7.87,0,0,1-2.66,1.44,11.44,11.44,0,0,1-3.61.52h-9v-22.6Zm-3.07,3.93v5.58h2.73a8.37,8.37,0,0,0,1.57-.13,3.12,3.12,0,0,0,1.18-.43,2,2,0,0,0,.75-.85,3.25,3.25,0,0,0,.26-1.37,3.94,3.94,0,0,0-.2-1.34,2,2,0,0,0-.63-.86,2.65,2.65,0,0,0-1.06-.47,7.59,7.59,0,0,0-1.53-.13ZM130,179.37a4.53,4.53,0,0,0,1.7-.26,2.61,2.61,0,0,0,1-.68,2.4,2.4,0,0,0,.52-1,4.29,4.29,0,0,0,.13-1.07,3.61,3.61,0,0,0-.16-1.12,1.81,1.81,0,0,0-.56-.83,2.61,2.61,0,0,0-1-.53,5.94,5.94,0,0,0-1.65-.19h-3.66v5.63Z"/><path class="cls-3" d="M167.75,172a12,12,0,0,1-.85,4.56,10.75,10.75,0,0,1-6.08,6.11,13.39,13.39,0,0,1-9.6,0,10.76,10.76,0,0,1-6.11-6.11,12.8,12.8,0,0,1,0-9.12,10.73,10.73,0,0,1,6.11-6.09,12.55,12.55,0,0,1,4.8-.89,12.37,12.37,0,0,1,4.8.9,10.8,10.8,0,0,1,3.7,2.44,10.68,10.68,0,0,1,2.38,3.66A12,12,0,0,1,167.75,172Zm-5.37,0a9.79,9.79,0,0,0-.43-3,6.47,6.47,0,0,0-1.25-2.27,5.52,5.52,0,0,0-2-1.43,7.66,7.66,0,0,0-5.39,0,5.47,5.47,0,0,0-2,1.43,6.31,6.31,0,0,0-1.25,2.27,10.62,10.62,0,0,0,0,6.05,6.28,6.28,0,0,0,1.25,2.28,5.33,5.33,0,0,0,2,1.42,7.81,7.81,0,0,0,5.39,0,5.38,5.38,0,0,0,2-1.42,6.43,6.43,0,0,0,1.25-2.28A9.77,9.77,0,0,0,162.38,172Z"/><path class="cls-3" d="M184,179.19a4.85,4.85,0,0,0,1.88-.35,3.78,3.78,0,0,0,1.41-1,4.52,4.52,0,0,0,.87-1.59,6.72,6.72,0,0,0,.31-2.13V160.73h5.24v13.39a10.45,10.45,0,0,1-.68,3.81,8.43,8.43,0,0,1-1.93,3,8.52,8.52,0,0,1-3.05,2,12.1,12.1,0,0,1-8.11,0,8.65,8.65,0,0,1-3.06-2,8.27,8.27,0,0,1-1.92-3,10.45,10.45,0,0,1-.67-3.81V160.73h5.24V174.1a6.93,6.93,0,0,0,.3,2.13,4.66,4.66,0,0,0,.88,1.6,3.69,3.69,0,0,0,1.41,1A4.85,4.85,0,0,0,184,179.19Z"/><path class="cls-3" d="M217.76,164.89H211.4v18.44h-5.25V164.89h-6.36v-4.16h18Z"/><path class="cls-3" d="M229.4,183.33h-5.27v-22.6h5.27Z"/><path class="cls-3" d="M261,187.56h-4.32a5.32,5.32,0,0,1-1.66-.24,3.51,3.51,0,0,1-1.38-.89l-2.8-3.15a12.82,12.82,0,0,1-2.84.3,12.64,12.64,0,0,1-4.81-.89,10.79,10.79,0,0,1-6.1-6.11,12.66,12.66,0,0,1,0-9.12,10.75,10.75,0,0,1,6.1-6.09,12.64,12.64,0,0,1,4.81-.89,12.37,12.37,0,0,1,4.8.9,11,11,0,0,1,3.7,2.44,10.83,10.83,0,0,1,2.38,3.66,12.14,12.14,0,0,1,.84,4.54,12.78,12.78,0,0,1-.3,2.8,11.36,11.36,0,0,1-.87,2.52,10.83,10.83,0,0,1-1.39,2.19,10.29,10.29,0,0,1-1.89,1.78ZM241.58,172a9.77,9.77,0,0,0,.43,3,6.43,6.43,0,0,0,1.25,2.28,5.33,5.33,0,0,0,2,1.42,7.2,7.2,0,0,0,2.71.48,7,7,0,0,0,2.68-.48,5.3,5.3,0,0,0,2-1.42,6.28,6.28,0,0,0,1.25-2.28,10.62,10.62,0,0,0,0-6.05,6.31,6.31,0,0,0-1.25-2.27,5.43,5.43,0,0,0-2-1.43,7,7,0,0,0-2.68-.49,7.19,7.19,0,0,0-2.71.49,5.47,5.47,0,0,0-2,1.43A6.47,6.47,0,0,0,242,169,9.79,9.79,0,0,0,241.58,172Z"/><path class="cls-3" d="M275.93,179.19a4.9,4.9,0,0,0,1.89-.35,3.82,3.82,0,0,0,1.4-1,4.71,4.71,0,0,0,.88-1.59,7,7,0,0,0,.3-2.13V160.73h5.24v13.39a10.45,10.45,0,0,1-.67,3.81,8.56,8.56,0,0,1-1.93,3,8.65,8.65,0,0,1-3.06,2,12.1,12.1,0,0,1-8.11,0,8.65,8.65,0,0,1-3.06-2,8.4,8.4,0,0,1-1.92-3,10.45,10.45,0,0,1-.67-3.81V160.73h5.24V174.1a6.92,6.92,0,0,0,.31,2.13,4.48,4.48,0,0,0,.87,1.6,3.77,3.77,0,0,0,1.41,1A4.85,4.85,0,0,0,275.93,179.19Z"/><path class="cls-3" d="M298.73,164.76V170h7.11v3.88h-7.11v5.38H308v4H293.46v-22.6H308v4Z"/><path class="cls-3" d="M345.57,160.73v22.6H340.3v-9.56h-9.18v9.56h-5.28v-22.6h5.28v9.45h9.18v-9.45Z"/><path class="cls-3" d="M375.85,172a12,12,0,0,1-.85,4.56,10.75,10.75,0,0,1-6.08,6.11,13.42,13.42,0,0,1-9.61,0,11,11,0,0,1-3.71-2.44,10.84,10.84,0,0,1-2.39-3.67,12.8,12.8,0,0,1,0-9.12,10.9,10.9,0,0,1,2.39-3.66,11,11,0,0,1,3.71-2.43,12.64,12.64,0,0,1,4.81-.89,12.37,12.37,0,0,1,4.8.9,10.77,10.77,0,0,1,6.08,6.1A12,12,0,0,1,375.85,172Zm-5.37,0a9.79,9.79,0,0,0-.43-3,6.47,6.47,0,0,0-1.25-2.27,5.55,5.55,0,0,0-2-1.43,7,7,0,0,0-2.68-.49,7.23,7.23,0,0,0-2.71.49,5.55,5.55,0,0,0-2,1.43,6.47,6.47,0,0,0-1.25,2.27,10.86,10.86,0,0,0,0,6.05,6.43,6.43,0,0,0,1.25,2.28,5.41,5.41,0,0,0,2,1.42,7.23,7.23,0,0,0,2.71.48,7,7,0,0,0,2.68-.48,5.41,5.41,0,0,0,2-1.42,6.43,6.43,0,0,0,1.25-2.28A9.77,9.77,0,0,0,370.48,172Z"/><path class="cls-3" d="M398.35,164.89H392v18.44h-5.25V164.89h-6.36v-4.16h18Z"/><path class="cls-3" d="M410,164.76V170h7.11v3.88H410v5.38h9.28v4H404.73v-22.6h14.55v4Z"/><path class="cls-3" d="M439.84,179.14v4.19H426.22v-22.6h5.24v18.41Z"/><path class="cls-3" d="M475.82,183.33h-2.68a2.12,2.12,0,0,1-.73-.11,1.62,1.62,0,0,1-.6-.45l-2.25-2.26a11.48,11.48,0,0,1-3.36,2.24,10.4,10.4,0,0,1-4.18.83,7.22,7.22,0,0,1-2.43-.42,6.83,6.83,0,0,1-2.13-1.22,6,6,0,0,1-1.52-1.95,5.73,5.73,0,0,1-.57-2.59,5.82,5.82,0,0,1,.36-2.05,6.38,6.38,0,0,1,1-1.79,7.64,7.64,0,0,1,1.53-1.47,10,10,0,0,1,1.94-1.12,9.83,9.83,0,0,1-1.4-2.34,6.23,6.23,0,0,1-.45-2.33,5.61,5.61,0,0,1,.41-2.13,5.15,5.15,0,0,1,1.19-1.73,5.79,5.79,0,0,1,1.89-1.16,6.94,6.94,0,0,1,2.48-.42,6.16,6.16,0,0,1,2.24.39,5.61,5.61,0,0,1,1.74,1.05,5,5,0,0,1,1.15,1.51,4.74,4.74,0,0,1,.49,1.79l-1.72.34c-.34.08-.6-.08-.76-.48a3.61,3.61,0,0,0-.35-.83,3.1,3.1,0,0,0-1.54-1.39,3.17,3.17,0,0,0-1.25-.23,3.71,3.71,0,0,0-1.4.25,3.29,3.29,0,0,0-1.07.69,2.91,2.91,0,0,0-.67,1,3.44,3.44,0,0,0-.24,1.29,3.9,3.9,0,0,0,.13,1,4.37,4.37,0,0,0,.39,1,7.48,7.48,0,0,0,.69,1,12.26,12.26,0,0,0,1,1.11l6.39,6.5a11.79,11.79,0,0,0,.95-2.19,10.89,10.89,0,0,0,.46-2.27.84.84,0,0,1,.19-.47.56.56,0,0,1,.43-.17h1.69a11.9,11.9,0,0,1-.55,3.5,12.81,12.81,0,0,1-1.57,3.22Zm-14.33-11a6.58,6.58,0,0,0-2.47,2.11,4.68,4.68,0,0,0-.83,2.7,3.94,3.94,0,0,0,1.35,3.07,4.31,4.31,0,0,0,1.38.8,4.73,4.73,0,0,0,1.58.27,7.28,7.28,0,0,0,3.12-.64,7.75,7.75,0,0,0,2.43-1.71Z"/><path class="cls-3" d="M508,180.88v2.45h-13.7V161.1H508v2.45H497.32v7.38H506v2.36h-8.65v7.59Z"/><path class="cls-3" d="M534,161.1l-9,22.23h-2.7L513.2,161.1h2.4a1,1,0,0,1,.66.21,1.2,1.2,0,0,1,.37.51l6.26,15.68c.14.35.27.73.4,1.15s.24.84.35,1.3c.1-.46.21-.89.33-1.3a9.73,9.73,0,0,1,.37-1.15l6.25-15.68a1.09,1.09,0,0,1,.36-.49,1,1,0,0,1,.66-.23Z"/><path class="cls-3" d="M560.58,172.22a12.79,12.79,0,0,1-.79,4.59,10.63,10.63,0,0,1-2.23,3.59,10.06,10.06,0,0,1-3.47,2.33,12.45,12.45,0,0,1-8.94,0,9.92,9.92,0,0,1-3.46-2.33,10.47,10.47,0,0,1-2.23-3.59,13.7,13.7,0,0,1,0-9.17,10.52,10.52,0,0,1,2.23-3.6,10,10,0,0,1,3.46-2.35,12.45,12.45,0,0,1,8.94,0,10.1,10.1,0,0,1,3.47,2.35,10.67,10.67,0,0,1,2.23,3.6A12.77,12.77,0,0,1,560.58,172.22Zm-3.08,0a11.31,11.31,0,0,0-.56-3.67,8,8,0,0,0-1.58-2.76,6.91,6.91,0,0,0-2.49-1.72,9,9,0,0,0-6.5,0,6.91,6.91,0,0,0-2.49,1.72,8,8,0,0,0-1.59,2.76,12.52,12.52,0,0,0,0,7.34,8,8,0,0,0,1.59,2.75,6.91,6.91,0,0,0,2.49,1.72,9.1,9.1,0,0,0,6.5,0,6.91,6.91,0,0,0,2.49-1.72,8,8,0,0,0,1.58-2.75A11.27,11.27,0,0,0,557.5,172.22Z"/><path class="cls-3" d="M589.14,172.22a13,13,0,0,1-.79,4.59,10.65,10.65,0,0,1-2.24,3.59,10,10,0,0,1-3.47,2.33,12.45,12.45,0,0,1-8.94,0,10,10,0,0,1-3.45-2.33,10.5,10.5,0,0,1-2.24-3.59,13.7,13.7,0,0,1,0-9.17,10.54,10.54,0,0,1,2.24-3.6,10,10,0,0,1,3.45-2.35,12.45,12.45,0,0,1,8.94,0,10,10,0,0,1,3.47,2.35,10.69,10.69,0,0,1,2.24,3.6A13,13,0,0,1,589.14,172.22Zm-3.09,0a11.31,11.31,0,0,0-.56-3.67,7.86,7.86,0,0,0-1.58-2.76,6.79,6.79,0,0,0-2.48-1.72,8.34,8.34,0,0,0-3.26-.61,8.24,8.24,0,0,0-3.24.61,6.91,6.91,0,0,0-2.49,1.72,7.73,7.73,0,0,0-1.59,2.76,12.31,12.31,0,0,0,0,7.34,7.68,7.68,0,0,0,1.59,2.75,6.91,6.91,0,0,0,2.49,1.72,8.42,8.42,0,0,0,3.24.6,8.53,8.53,0,0,0,3.26-.6,6.79,6.79,0,0,0,2.48-1.72,7.81,7.81,0,0,0,1.58-2.75A11.27,11.27,0,0,0,586.05,172.22Z"/></g></g></g></svg>