<svg xmlns="http://www.w3.org/2000/svg" viewBox="0 0 118.28 118.28"><defs><style>.cls-1{fill:#5c5b59;}</style></defs><title>no-smoking</title><g id="Capa_2" data-name="Capa 2"><g id="Capa_1-2" data-name="Capa 1"><path class="cls-1" d="M59.14,0a59.14,59.14,0,1,0,59.14,59.14A59.21,59.21,0,0,0,59.14,0Zm0,10.55A48.32,48.32,0,0,1,89.55,21.28L57.77,53.06H34.54V65.22H45.6L21.27,89.55a48.56,48.56,0,0,1,37.87-79Zm0,97.19A48.38,48.38,0,0,1,28.73,97L60.51,65.23H89.42V53.06H72.68L97,28.73a48.56,48.56,0,0,1-37.87,79Z"/><path class="cls-1" d="M32.91,49.4a3.63,3.63,0,0,1,3.63-3.62H57.59a7.69,7.69,0,0,0,0-15.37h-8a3.63,3.63,0,0,1,0-7.26h2v-4h-2a7.68,7.68,0,0,0,0,15.36h8a3.63,3.63,0,0,1,0,7.26H36.54a7.69,7.69,0,0,0-7.68,7.68v2h4Z"/><rect class="cls-1" x="28.86" y="53.06" width="4.06" height="12.17"/></g></g></svg>