<svg width="65" height="65" viewBox="0 0 65 65" fill="none" xmlns="http://www.w3.org/2000/svg">
<path d="M62.0447 0H2.95451C1.32283 0 0 1.32283 0 2.95451V62.0455C0 63.6772 1.32283 65 2.95451 65H36.4389C38.0706 65 39.3935 63.6772 39.3935 62.0455C39.3935 60.4138 38.0706 59.091 36.4389 59.091H5.90902V33.4852H19.6967V44.3176C19.6967 45.9493 21.0196 47.2722 22.6512 47.2722C24.2829 47.2722 25.6057 45.9493 25.6057 44.3176V16.7422C25.6057 15.1105 24.2829 13.7877 22.6512 13.7877C21.0196 13.7877 19.6967 15.1105 19.6967 16.7422V27.5762H5.90902V5.90902H35.4541V20.6824C35.4541 22.314 36.7769 23.6369 38.4086 23.6369H52.1963C53.828 23.6369 55.1508 22.314 55.1508 20.6824C55.1508 19.0507 53.828 17.7278 52.1963 17.7278H41.3631V5.90902H59.0902V41.3639H38.4086C36.7769 41.3639 35.4541 42.6868 35.4541 44.3184C35.4541 45.9501 36.7769 47.2729 38.4086 47.2729H59.0902V59.091H54.166C52.5343 59.091 51.2115 60.4138 51.2115 62.0455C51.2115 63.6772 52.5343 65 54.166 65H62.0447C63.6764 65 64.9992 63.6772 64.9992 62.0455V2.95451C64.9992 1.32283 63.6764 0 62.0447 0Z" fill="#5C5B59"/>
</svg>
