<svg width="100" height="49" viewBox="0 0 100 49" fill="none" xmlns="http://www.w3.org/2000/svg">
<path d="M85.3655 7.31708C85.3655 1.91456 83.4509 0 78.0484 0H21.9509C16.5483 0 14.6338 1.91456 14.6338 7.31708V24.3903H85.3655V7.31708Z" fill="#5C5B59"/>
<path d="M95.122 12.1953C92.428 12.1953 90.244 14.3792 90.244 17.0733V29.2686H9.75618V17.0735C9.75618 14.3795 7.57226 12.1955 4.8782 12.1955C2.18392 12.1953 0 14.3795 0 17.0735V36.5857C0 39.2797 2.18392 41.4636 4.87798 41.4636H7.31708V48.7807H14.6342V41.4636H85.3658V48.7807H92.6829V41.4636H95.0902C97.7916 41.4691 99.9879 39.287 100 36.5857V17.0735C100 14.3795 97.8161 12.1953 95.122 12.1953Z" fill="#5C5B59"/>
</svg>
