<svg xmlns="http://www.w3.org/2000/svg" viewBox="0 0 144.25 144.25"><defs><style>.cls-1{fill:#5c5b59;}</style></defs><title>washer</title><g id="Capa_2" data-name="Capa 2"><g id="Capa_1-2" data-name="Capa 1"><g id="Page-1"><g id="_018---Washing-Machine" data-name="018---Washing-Machine"><path id="Shape" class="cls-1" d="M132.23,0H12A12,12,0,0,0,0,12V132.23a12,12,0,0,0,12,12H132.23a12,12,0,0,0,12-12V12A12,12,0,0,0,132.23,0Zm7.21,12V33.66H62.51V4.81h69.72A7.21,7.21,0,0,1,139.44,12ZM12,4.81H57.7V33.66H4.81V12A7.21,7.21,0,0,1,12,4.81ZM132.23,139.44H12a7.21,7.21,0,0,1-7.21-7.21V38.47H139.44v93.76A7.21,7.21,0,0,1,132.23,139.44Z"/><path id="Shape-2" data-name="Shape" class="cls-1" d="M16.83,26.45H45.68a4.82,4.82,0,0,0,4.81-4.81V19.23A7.21,7.21,0,0,0,43.28,12h-24A7.21,7.21,0,0,0,12,19.23v2.41A4.81,4.81,0,0,0,16.83,26.45Zm0-7.22a2.41,2.41,0,0,1,2.4-2.4H43.28a2.41,2.41,0,0,1,2.4,2.4v2.41H16.83Z"/><path id="Shape-3" data-name="Shape" class="cls-1" d="M125,28.85a9.62,9.62,0,1,0-9.62-9.62A9.62,9.62,0,0,0,125,28.85Zm0-14.42a4.81,4.81,0,1,1-4.81,4.8A4.81,4.81,0,0,1,125,14.43Z"/><path id="Shape-4" data-name="Shape" class="cls-1" d="M101,28.85a9.62,9.62,0,1,0-9.62-9.62A9.62,9.62,0,0,0,101,28.85Zm0-14.42a4.81,4.81,0,1,1-4.81,4.8A4.8,4.8,0,0,1,101,14.43Z"/><circle id="Oval" class="cls-1" cx="72.13" cy="19.23" r="2.4"/><circle id="Oval-2" data-name="Oval" class="cls-1" cx="81.74" cy="19.23" r="2.4"/><path id="Shape-5" data-name="Shape" class="cls-1" d="M72.13,43.28A45.68,45.68,0,1,0,117.8,89,45.68,45.68,0,0,0,72.13,43.28Zm0,86.55A40.88,40.88,0,1,1,113,89,40.88,40.88,0,0,1,72.13,129.83Z"/><path id="Shape-6" data-name="Shape" class="cls-1" d="M98.9,78.26a4.79,4.79,0,0,0,2.48-3,4.89,4.89,0,0,0-.53-3.88,33.66,33.66,0,1,0,0,35.07,4.82,4.82,0,0,0-2-6.83l-5.14-2.57V80.83ZM96.76,104v0A28.86,28.86,0,0,1,43.45,92.19c-.05-.45-.05-.9-.08-1.36l.13.09a23.21,23.21,0,0,0,15,5.25,23.21,23.21,0,0,0,15-5.26,18.39,18.39,0,0,1,12.22-4.36,21.61,21.61,0,0,1,3.22.24V97.08a4.79,4.79,0,0,0,2.67,4.3ZM91.61,76.52A4.81,4.81,0,0,0,89,80.83v1.09a28.82,28.82,0,0,0-3.22-.18,23.18,23.18,0,0,0-15,5.25,18.47,18.47,0,0,1-12.25,4.37A18.4,18.4,0,0,1,46.27,87c-.86-.61-1.77-1.22-2.73-1.81a28.52,28.52,0,0,1,7.1-15.5A28.85,28.85,0,0,1,96.76,74Z"/><path id="Shape-7" data-name="Shape" class="cls-1" d="M12,43.28a2.39,2.39,0,0,0-2.4,2.4v4.81a2.41,2.41,0,0,0,4.81,0V45.68A2.4,2.4,0,0,0,12,43.28Z"/><path id="Shape-8" data-name="Shape" class="cls-1" d="M12,57.7a2.4,2.4,0,0,0-2.4,2.4v50.49a2.41,2.41,0,1,0,4.81,0V60.1A2.41,2.41,0,0,0,12,57.7Z"/></g></g></g></g></svg>