<svg xmlns="http://www.w3.org/2000/svg" viewBox="0 0 129.9 98.19"><defs><style>.cls-1{fill:#5c5b59;}</style></defs><title>wifi</title><g id="Capa_2" data-name="Capa 2"><g id="Capa_1-2" data-name="Capa 1"><path class="cls-1" d="M21.12,45.12A7,7,0,0,0,31,55a48.12,48.12,0,0,1,68,0,7,7,0,1,0,9.82-9.85A62,62,0,0,0,21.12,45.12Z"/><path class="cls-1" d="M39.92,63.91a7,7,0,1,0,9.84,9.85,21.48,21.48,0,0,1,30.38,0A6.94,6.94,0,0,0,90,63.94,35.39,35.39,0,0,0,39.92,63.91Z"/><circle class="cls-1" cx="64.95" cy="88.92" r="9.27"/><path class="cls-1" d="M127.87,26A89.13,89.13,0,0,0,2,26a7,7,0,0,0,9.85,9.85,75.14,75.14,0,0,1,106.17,0,6.91,6.91,0,0,0,9.82,0A7,7,0,0,0,127.87,26Z"/></g></g></svg>